<?xml version="1.0" encoding="UTF-8"?>
<svg xmlns="http://www.w3.org/2000/svg" version="1.1" viewBox="0 0 735.56 602.56">
  <!-- Generator: Adobe Illustrator 29.0.1, SVG Export Plug-In . SVG Version: 2.1.0 Build 192)  -->
  <defs>
    <style>
      .st0 {
        fill: hsl(40, 45%, 55%);
      }
    </style>
  </defs>
  <g id="text">
    <g>
      <path class="st0" d="M59.22,530.35h7.14v35.94c0,18.47,9.99,26.82,25.04,26.82s25.17-8.34,25.17-26.82v-35.94h7.14v35.83c0,22.48-12.98,32.6-32.31,32.6s-32.18-10.12-32.18-32.6v-35.83Z"/>
      <path class="st0" d="M146.81,530.35l47.1,54.41v-54.41h6.75v66.76h-4.93l-47.1-54.41v54.41h-6.75v-66.76h4.93Z"/>
      <path class="st0" d="M219.48,597.11h-7.4l32.18-66.76h5.84l32.18,66.76h-7.79l-9.34-19.36h-36.46l-9.21,19.36ZM246.86,539.47l-15.57,32.82h31.27l-15.7-32.82Z"/>
      <path class="st0" d="M324.2,530.35l30.49,58.64,30.49-58.64h7.79v66.76h-7.14v-45.4c0-5.23.13-10.79.13-10.9-.13.22-2.72,6.12-5.06,10.68l-23.62,45.62h-5.71l-23.62-45.62c-2.47-4.79-4.8-10.24-5.06-10.68,0,.11.13,5.56.13,10.9v45.4h-6.88v-66.76h8.05Z"/>
      <path class="st0" d="M411.79,597.11h-7.4l32.18-66.76h5.84l32.18,66.76h-7.79l-9.34-19.36h-36.46l-9.21,19.36ZM439.17,539.47l-15.57,32.82h31.27l-15.7-32.82Z"/>
      <path class="st0" d="M493.15,530.35v61.31h36.98v5.45h-44.12v-66.76h7.14Z"/>
      <path class="st0" d="M541.68,597.11h-7.4l32.18-66.76h5.84l32.18,66.76h-7.79l-9.34-19.36h-36.46l-9.21,19.36ZM569.06,539.47l-15.57,32.82h31.27l-15.7-32.82Z"/>
      <path class="st0" d="M620.84,530.35l47.1,54.41v-54.41h6.75v66.76h-4.93l-47.1-54.41v54.41h-6.75v-66.76h4.93Z"/>
    </g>
  </g>
  <g id="VECTOR_LOGO">
    <path class="st0" d="M610.61,5.44l-180.16,263.83S254.23,6.25,253.74,5.58h-42.49c0,8.82-.09,444.93-.45,446.94-48.22-8.26-83.67-61.5-83.67-147.47,0-42.39.07-299.48.07-299.48h-56.67s-.04,216.21,0,286.65c-1.15,77.34,39.59,153.06,116.31,171.72,81.28,19.52,127.61-17.82,157.74-57.07,15.55-20.25,229.17-335.94,265.79-389.62-1.79,2.63.2-.3.2-.3,0,0-.17,369.46,0,452.32,18.3,0,37.09,0,55.39,0V5.18l-55.36.25ZM221.34,454.1c0-128.87-.5-396.05-.5-396.05,0,0,162.21,241.14,175.55,261.06-79.84,118.58-103.3,134.99-175.05,134.99Z"/>
  </g>
</svg>